<mxfile host="app.diagrams.net" modified="2023-06-22T19:19:39.796Z" agent="Mozilla/5.0 (Windows NT 10.0; Win64; x64) AppleWebKit/537.36 (KHTML, like Gecko) Chrome/114.0.0.0 Safari/537.36" version="21.5.0" etag="hx3fzGNLAjt5RT3IhGi9" type="github">
  <diagram name="PÃ¡gina-1" id="9RYoFY8GCwM7AoHcxTI_">
    <mxGraphModel>
      <root>
        <mxCell id="0" />
        <mxCell id="1" parent="0" />
      </root>
    </mxGraphModel>
  </diagram>
</mxfile>
